<?xml version="1.0" encoding="utf-8"?>
<!-- Generator: Adobe Illustrator 27.9.0, SVG Export Plug-In . SVG Version: 6.00 Build 0)  -->
<svg version="1.1" id="Layer_1" xmlns="http://www.w3.org/2000/svg" xmlns:xlink="http://www.w3.org/1999/xlink" x="0px" y="0px"
	 viewBox="0 0 17.9 17.9" style="enable-background:new 0 0 17.9 17.9;" xml:space="preserve">
<style type="text/css">
	.st0{fill:#7D6EE7;}
	.st1{fill:#FFFFFF;}
</style>
<path class="st0" d="M3.6,0h10.8c2,0,3.6,1.6,3.6,3.6v10.8c0,2-1.6,3.6-3.6,3.6H3.6c-2,0-3.6-1.6-3.6-3.6V3.6C0,1.6,1.6,0,3.6,0z"/>
<path class="st1" d="M1.6,3.4c0-0.3,0.2-0.6,0.6-0.6h2.2c0.3,0,0.6,0.2,0.6,0.6S4.7,3.9,4.4,3.9H2.2C1.9,3.9,1.6,3.7,1.6,3.4 M6,3.4
	c0-0.3,0.2-0.6,0.4-0.6h8.8c0.2,0,0.4,0.2,0.4,0.6s-0.2,0.5-0.4,0.5H6.4C6.2,3.9,6,3.7,6,3.4 M1.6,5.6C1.6,5.3,1.9,5,2.2,5h2.2
	c0.3,0,0.6,0.2,0.6,0.6S4.7,6.1,4.4,6.1H2.2C1.9,6.1,1.6,5.9,1.6,5.6 M6,5.6C6,5.3,6.2,5,6.4,5h7.9c0.2,0,0.4,0.2,0.4,0.6
	s-0.2,0.5-0.4,0.5H6.4C6.2,6.1,6,5.9,6,5.6 M1.6,7.8c0-0.3,0.2-0.5,0.6-0.5h2.2c0.3,0,0.6,0.2,0.6,0.5S4.7,8.3,4.4,8.3H2.2
	C1.9,8.3,1.6,8.1,1.6,7.8 M6,7.8c0-0.3,0.2-0.5,0.4-0.5h9.7c0.2,0,0.4,0.2,0.4,0.5s-0.2,0.6-0.4,0.6H6.4C6.2,8.3,6,8.1,6,7.8
	 M1.6,10c0-0.3,0.2-0.5,0.6-0.5h2.2c0.3,0,0.6,0.2,0.6,0.5c0,0.3-0.2,0.6-0.6,0.6H2.2C1.9,10.5,1.6,10.3,1.6,10 M6,10
	c0-0.3,0.2-0.5,0.4-0.5h7c0.2,0,0.4,0.2,0.4,0.5c0,0.3-0.2,0.6-0.4,0.6h-7C6.2,10.5,6,10.3,6,10 M1.6,12.2c0-0.3,0.2-0.6,0.6-0.6
	h2.2c0.3,0,0.6,0.2,0.6,0.6c0,0.3-0.2,0.5-0.6,0.5H2.2C1.9,12.7,1.6,12.5,1.6,12.2 M6,12.2c0-0.3,0.2-0.6,0.4-0.6h7
	c0.2,0,0.4,0.2,0.4,0.6c0,0.3-0.2,0.5-0.4,0.5h-7C6.2,12.7,6,12.5,6,12.2 M1.6,14.4c0-0.3,0.2-0.6,0.6-0.6h2.2
	c0.3,0,0.6,0.2,0.6,0.6s-0.2,0.6-0.6,0.6H2.2C1.9,14.9,1.6,14.7,1.6,14.4 M6,14.4c0-0.3,0.2-0.6,0.4-0.6h8.8c0.2,0,0.4,0.2,0.4,0.6
	s-0.2,0.6-0.4,0.6H6.4C6.2,14.9,6,14.7,6,14.4"/>
</svg>
